{"title":"Thor The Dark World (2013) 720p HDrip Blurred Subtitles-BDM","uid":9547971,"size":1505896324,"categoryP":"video","categoryS":"hd___movies","magnet":"?xt=urn:btih:c21d3da0105b0ce6a3c57aa80621020555009ee2&amp;dn=Thor+The+Dark+World+%282013%29+720p+HDrip+Blurred+Subtitles-BDM&amp;tr=udp%3A%2F%2Ftracker.openbittorrent.com%3A80&amp;tr=udp%3A%2F%2Fopen.demonii.com%3A1337&amp;tr=udp%3A%2F%2Ftracker.coppersurfer.tk%3A6969&amp;tr=udp%3A%2F%2Fexodus.desync.com%3A6969","seeders":1,"leechers":0,"uploader":"BigDogMoya","files":-1,"time":1391174316,"description":"This one is better quality than the last one but still the BluRay will be out soon but for people not wanting to wait here you go.\n\n    &lt;a href=&quot;\nhttp://www.imdb.com/title/tt1981115/&quot; rel=&quot;nofollow&quot; target=&quot;_NEW&quot;&gt;\nhttp://www.imdb.com/title/tt1981115/&lt;/a&gt;\n\n\nScreen Shots:\n &lt;a href=&quot;\nhttp://i.imgur.com/qW6uWQ3.png&quot; rel=&quot;nofollow&quot; target=&quot;_NEW&quot;&gt;\nhttp://i.imgur.com/qW6uWQ3.png&lt;/a&gt;\n &lt;a href=&quot;\nhttp://i.imgur.com/AjgJAWs.png&quot; rel=&quot;nofollow&quot; target=&quot;_NEW&quot;&gt;\nhttp://i.imgur.com/AjgJAWs.png&lt;/a&gt;\n &lt;a href=&quot;\nhttp://i.imgur.com/VGnCmHZ.png&quot; rel=&quot;nofollow&quot; target=&quot;_NEW&quot;&gt;\nhttp://i.imgur.com/VGnCmHZ.png&lt;/a&gt;\n &lt;a href=&quot;\nhttp://i.imgur.com/mgNo0Jo.png&quot; rel=&quot;nofollow&quot; target=&quot;_NEW&quot;&gt;\nhttp://i.imgur.com/mgNo0Jo.png&lt;/a&gt;\n &lt;a href=&quot;\nhttp://i.imgur.com/qpYIKaz.png&quot; rel=&quot;nofollow&quot; target=&quot;_NEW&quot;&gt;\nhttp://i.imgur.com/qpYIKaz.png&lt;/a&gt;\n\n\nAlso included a sample, enjoy.\t\n\nVideo\nID                                       : 1\nFormat                                   : AVC\nFormat/Info                              : Advanced Video Codec\nFormat profile                           : &lt;a class=&quot;__cf_email__&quot; href=&quot;/cdn-cgi/l/email-protection&quot; data-cfemail=&quot;87cfeee0efc7cbb4a9b6&quot;&gt;[email&amp;#160;protected]&lt;/a&gt;&lt;script cf-hash='f9e31' type=&quot;text/javascript&quot;&gt;\n/* &lt;![CDATA[ */!function(){try{var t=&quot;currentScript&quot;in document?document.currentScript:function(){for(var t=document.getElementsByTagName(&quot;script&quot;),e=t.length;e--;)if(t[e].getAttribute(&quot;cf-hash&quot;))return t[e]}();if(t&amp;&amp;t.previousSibling){var e,r,n,i,c=t.previousSibling,a=c.getAttribute(&quot;data-cfemail&quot;);if(a){for(e=&quot;&quot;,r=parseInt(a.substr(0,2),16),n=2;a.length-n;n+=2)i=parseInt(a.substr(n,2),16)^r,e+=String.fromCharCode(i);e=document.createTextNode(e),c.parentNode.replaceChild(e,c)}}}catch(u){}}();/* ]]&gt; */&lt;/script&gt;\nFormat settings, CABAC                   : Yes\nFormat settings, ReFrames                : 4 frames\nCodec ID                                 : avc1\nCodec ID/Info                            : Advanced Video Coding\nDuration                                 : 1h 51mn\nBit rate                                 : 1 330 Kbps\nMaximum bit rate                         : 5 458 Kbps\nWidth                                    : 1 280 pixels\nHeight                                   : 720 pixels\nDisplay aspect ratio                     : 16:9\nFrame rate mode                          : Constant\nFrame rate                               : 30.000 fps\nStandard                                 : NTSC\nColor space                              : YUV\nChroma subsampling                       : 4:2:0\nBit depth                                : 8 bits\nScan type                                : Progressive\nBits/(Pixel*Frame)                       : 0.048\nStream size                              : 1.04 GiB (75%)\nWriting library                          : x264 core 138 r2358M+r755[x86] release 1\n\n\nAudio\nID                                       : 2\nFormat                                   : AC-3\nFormat/Info                              : Audio Coding 3\nMode extension                           : CM (complete main)\nFormat settings, Endianness              : Big\nCodec ID                                 : ac-3\nDuration                                 : 1h 51mn\nBit rate mode                            : Constant\nBit rate                                 : 448 Kbps\nChannel(s)                               : 2 channels\nChannel positions                        : Front: L R\nSampling rate                            : 48.0 KHz\nBit depth                                : 16 bits\nCompression mode                         : Lossy\nStream size                              : 358 MiB (25%)\nEncoded date                             : UTC 2014-01-31 11:42:10\nTagged date                              : UTC 2014-01-31 11:42:10","torrent":{"xt":"urn:btih:c21d3da0105b0ce6a3c57aa80621020555009ee2","amp;dn":"Thor+The+Dark+World+%282013%29+720p+HDrip+Blurred+Subtitles-BDM","amp;tr":["udp%3A%2F%2Ftracker.openbittorrent.com%3A80","udp%3A%2F%2Fopen.demonii.com%3A1337","udp%3A%2F%2Ftracker.coppersurfer.tk%3A6969","udp%3A%2F%2Fexodus.desync.com%3A6969"],"infoHash":"c21d3da0105b0ce6a3c57aa80621020555009ee2","infoHashBuffer":{"type":"Buffer","data":[194,29,61,160,16,91,12,230,163,197,122,168,6,33,2,5,85,0,158,226]},"announce":[],"urlList":[]}}